<?xml version="1.0" encoding="UTF-8" standalone="no"?>
<!DOCTYPE svg PUBLIC "-//W3C//DTD SVG 1.1//EN" "http://www.w3.org/Graphics/SVG/1.1/DTD/svg11.dtd">
<svg width="100%" height="100%" viewBox="0 0 227 56" version="1.1" xmlns="http://www.w3.org/2000/svg" xmlns:xlink="http://www.w3.org/1999/xlink" xml:space="preserve" xmlns:serif="http://www.serif.com/" style="fill-rule:evenodd;clip-rule:evenodd;stroke-linejoin:round;stroke-miterlimit:2;">
    <g transform="matrix(1,0,0,-1,0,181.907)">
        <path d="M24.066,126.434L45.789,180L33.68,180L26.637,162.168L22.895,151.676L19.078,162.536L12.109,180L0,180L21.719,126.434L24.066,126.434Z" style="fill:white;fill-rule:nonzero;"/>
    </g>
    <g transform="matrix(1,0,0,-1,0,180.805)">
        <path d="M79.324,126.434L79.324,136.926L62.664,136.926L62.664,147.418L76.461,147.418L76.461,157.914L62.664,157.914L62.664,168.406L78.441,168.406L78.441,178.898L52.172,178.898L52.172,126.434L79.324,126.434Z" style="fill:white;fill-rule:nonzero;"/>
    </g>
    <g transform="matrix(1,0,0,-1,0,180.95)">
        <path d="M86.734,129.954C93.852,126.286 100.383,125.918 103.316,126.137C113.148,126.653 119.168,133.329 119.168,142.059C119.168,150.426 112.121,155.122 103.977,158.129C100.969,159.157 98.402,160.477 98.105,163.415C97.887,166.348 99.574,169.063 103.316,169.286C104.93,169.356 108.234,169.43 114.031,167.082L115.352,177.207C108.602,179.559 105.004,179.559 102.289,179.411C93.559,178.969 87.469,172.219 87.469,163.415C87.469,154.61 94.805,150.426 103.023,147.418C105.957,146.391 108.234,145.071 108.453,142.059C108.746,139.2 106.105,136.997 103.023,136.778C100.602,136.559 94.07,136.704 88.055,140.961L86.734,129.954Z" style="fill:white;fill-rule:nonzero;"/>
    </g>
    <g transform="matrix(1,0,0,-1,0,180.806)">
        <rect x="127.973" y="126.434" width="10.492" height="52.465" style="fill:white;"/>
    </g>
    <g transform="matrix(1,0,0,-1,0,180.879)">
        <path d="M169.43,126.508L169.43,168.48L182.492,168.48L182.492,178.898L145.875,178.898L145.875,168.48L158.938,168.48L158.938,126.508L169.43,126.508Z" style="fill:white;fill-rule:nonzero;"/>
    </g>
    <g transform="matrix(1,0,0,-1,0,178.898)">
        <path d="M181.098,124.527L192.984,124.527L195.039,130.175L212.43,130.175L214.559,124.527L226.375,124.527L204.285,178.898L203.188,178.898L181.098,124.527ZM198.855,140.007L203.773,153.655L208.543,140.007L198.855,140.007Z" style="fill:white;fill-rule:nonzero;"/>
    </g>
</svg>
